<?xml version="1.0" encoding="utf-8"?><svg xmlns="http://www.w3.org/2000/svg" xmlns:xlink="http://www.w3.org/1999/xlink"><symbol viewBox="0 0 512 512" id="adv-card-item1"><path d="M400 496h-8v-71.38c0-17.938-5.456-35.201-15.777-49.923l-82.552-117.75 82.569-118.693C386.55 123.432 392 106.055 392 88V16h8a8 8 0 0 0 0-16H112a8 8 0 0 0 0 16h8v72c0 18.055 5.45 35.432 15.76 50.253l82.569 118.693-82.552 117.75C125.456 389.419 120 406.682 120 424.62V496h-8a8 8 0 0 0 0 16h288a8 8 0 0 0 0-16zm-264-71.38c0-14.634 4.453-28.722 12.878-40.739l85.76-122.324a8.002 8.002 0 0 0 .017-9.161l-85.76-123.28C140.459 116.99 136 102.772 136 88V16h240v72c0 14.772-4.459 28.99-12.895 41.117l-85.76 123.28a7.998 7.998 0 0 0 .017 9.161l85.76 122.324C371.547 395.898 376 409.986 376 424.62V496H136v-71.38z"/><path d="M304.005 464h-16.001a8 8 0 0 0 0 16h16.001a8 8 0 0 0 0-16zM256 249.314a8 8 0 0 0 6.766-3.731c1.774-2.668 34.496-49.8 56.188-81.018A8.001 8.001 0 0 0 312.385 152h-112.77a8 8 0 0 0-6.569 12.564c21.693 31.218 54.415 78.35 56.188 81.018a8 8 0 0 0 6.766 3.732zM297.085 168c-22.897 32.959-34.837 50.177-41.085 59.214-6.248-9.037-18.188-26.255-41.085-59.214h82.17z"/><path d="M312.401 339.408a8 8 0 0 0-6.55-3.408h-99.702a7.997 7.997 0 0 0-6.55 3.408l-37.62 53.659C155.451 402.378 152 413.29 152 424.62V472a8 8 0 0 0 8 8h96.003a8 8 0 0 0 0-16H168v-39.38c0-8.027 2.448-15.762 7.08-22.369L210.311 352h91.379l35.23 50.251c4.632 6.607 7.081 14.342 7.081 22.369V464h-8a8 8 0 0 0 0 16h16a8 8 0 0 0 8-8v-47.38c0-11.331-3.451-22.242-9.979-31.554l-37.621-53.658zm17.676-204.84a7.965 7.965 0 0 0 4.562 1.433 7.99 7.99 0 0 0 6.574-3.432l8.758-12.59A55.74 55.74 0 0 0 360 88v-8a8 8 0 0 0-16 0v8a39.815 39.815 0 0 1-7.164 22.843l-8.758 12.59a8 8 0 0 0 1.999 11.135zM352 56a8 8 0 0 0 8-8v-8a8 8 0 0 0-16 0v8a8 8 0 0 0 8 8z"/></symbol><symbol viewBox="0 0 512 512" id="adv-card-item2"><path d="M59.733 17.067h45.423l31.377 78.438V153.6a8.53 8.53 0 0 0 8.533 8.533 8.536 8.536 0 0 0 8.533-8.533v-51.2h145.067c14.114 0 25.6 11.486 25.6 25.6v8.533H179.2a8.53 8.53 0 0 0-8.533 8.533 8.53 8.53 0 0 0 8.533 8.533h153.6a8.536 8.536 0 0 0 8.533-8.533V128c0-23.526-19.14-42.667-42.667-42.667H150.844L118.852 5.359A8.532 8.532 0 0 0 110.933 0h-51.2C55.014 0 51.2 3.823 51.2 8.533s3.814 8.534 8.533 8.534zm110.934 256c-37.641 0-68.267 30.626-68.267 68.267 0 37.641 30.626 68.267 68.267 68.267 37.641 0 68.267-30.626 68.267-68.267-.001-37.641-30.627-68.267-68.267-68.267zm0 119.466c-28.237 0-51.2-22.963-51.2-51.2 0-28.237 22.963-51.2 51.2-51.2 28.228 0 51.2 22.963 51.2 51.2 0 28.237-22.972 51.2-51.2 51.2z"/><path d="M170.923 332.8h-.094c-4.702 0-8.482 3.823-8.482 8.533s3.857 8.533 8.576 8.533c4.71 0 8.533-3.823 8.533-8.533s-3.823-8.533-8.533-8.533z"/><path d="M267.213 244.787c-.111-.128-.282-.162-.41-.273-24.687-24.525-58.675-39.714-96.137-39.714-37.487 0-71.467 15.198-96.171 39.731-.111.102-.265.137-.375.256-.102.102-.137.256-.247.367-24.542 24.704-39.74 58.692-39.74 96.179 0 37.513 15.215 71.518 39.782 96.222.094.094.12.222.205.316.094.085.222.111.307.196 24.704 24.576 58.718 39.799 96.239 39.799 37.478 0 71.484-15.198 96.171-39.748.119-.094.265-.137.375-.247.111-.111.154-.256.247-.367 24.533-24.704 39.74-58.692 39.74-96.171 0-37.47-15.198-71.45-39.723-96.145-.101-.128-.144-.281-.263-.401zm-6.366 174.661l-5.709-5.717c-3.328-3.328-8.73-3.328-12.066 0-3.337 3.337-3.337 8.738 0 12.066l5.709 5.717c-20.966 18.185-48.239 29.286-78.114 29.286-29.875 0-57.156-11.102-78.123-29.286l5.709-5.717c3.337-3.328 3.337-8.73 0-12.066-3.328-3.328-8.73-3.328-12.066 0l-5.709 5.717C62.293 398.473 51.2 371.2 51.2 341.333c0-29.875 11.102-57.148 29.286-78.123l5.7 5.709a8.526 8.526 0 0 0 6.033 2.5 8.509 8.509 0 0 0 6.033-2.5c3.337-3.337 3.337-8.738 0-12.066l-5.7-5.709c20.966-18.185 48.247-29.278 78.114-29.278 29.867 0 57.139 11.093 78.106 29.278l-5.7 5.7a8.534 8.534 0 0 0 0 12.075 8.51 8.51 0 0 0 6.033 2.5 8.509 8.509 0 0 0 6.033-2.5l5.709-5.7c18.185 20.966 29.286 48.247 29.286 78.114 0 29.867-11.093 57.14-29.286 78.115zm217.02 8.081V264.533c0-23.526-19.14-42.667-42.667-42.667H329.062c-4.719 0-8.533 3.823-8.533 8.533s3.814 8.533 8.533 8.533H435.2c14.114 0 25.6 11.486 25.6 25.6v8.533H354.534c-4.719 0-8.533 3.823-8.533 8.533s3.814 8.533 8.533 8.533H460.8v137.395c-19.456 3.968-34.133 21.197-34.133 41.805 0 23.526 19.14 42.667 42.667 42.667C492.86 512 512 492.86 512 469.333c0-20.608-14.686-37.836-34.133-41.804zm-8.534 67.404c-14.123 0-25.6-11.486-25.6-25.6 0-11.11 7.159-20.489 17.067-24.03v24.03a8.53 8.53 0 0 0 8.533 8.533 8.536 8.536 0 0 0 8.533-8.533v-24.03c9.907 3.541 17.067 12.919 17.067 24.03 0 14.115-11.485 25.6-25.6 25.6z"/><path d="M170.667 170.667C76.553 170.667 0 247.228 0 341.333S76.553 512 170.667 512c94.106 0 170.667-76.561 170.667-170.667s-76.562-170.666-170.667-170.666zm0 324.266c-84.693 0-153.6-68.907-153.6-153.6s68.907-153.6 153.6-153.6 153.6 68.907 153.6 153.6-68.907 153.6-153.6 153.6z"/></symbol><symbol viewBox="0 0 334.877 334.877" id="adv-card-item3"><path d="M333.196 155.999h-16.067V82.09c0-17.719-14.415-32.134-32.134-32.134h-21.761L240.965 9.917a19.28 19.28 0 0 0-26.222-7.488l-85.464 47.526H33.815c-17.719 0-32.134 14.415-32.134 32.134v220.653c0 17.719 14.415 32.134 32.134 32.134h251.18c17.719 0 32.134-14.415 32.134-32.134V237.94h16.067v-81.941zm-48.201-93.19c9.897 0 17.982 7.519 19.068 17.14h-24.152l-9.525-17.14h14.609zm-63.999-49.146c3.014-1.69 7.07-.508 8.734 2.494l35.476 63.786H101.798l119.198-66.28zm83.279 289.079c0 10.63-8.651 19.281-19.281 19.281H33.815c-10.63 0-19.281-8.651-19.281-19.281V82.09c0-10.63 8.651-19.281 19.281-19.281h72.353L75.345 79.95H37.832c-3.554 0-6.427 2.879-6.427 6.427s2.873 6.427 6.427 6.427h266.443v63.201h-46.999c-21.826 0-39.589 17.764-39.589 39.589v2.764c0 21.826 17.764 39.589 39.589 39.589h46.999v64.795zm16.067-77.655h-63.066c-14.743 0-26.736-11.992-26.736-26.736v-2.764c0-14.743 11.992-26.736 26.736-26.736h63.066v56.236zm-43.381-27.59c0 7.841-6.35 14.19-14.19 14.19-7.841 0-14.19-6.35-14.19-14.19s6.35-14.19 14.19-14.19c7.841-.001 14.19 6.355 14.19 14.19z"/></symbol><symbol viewBox="0 0 159.138 159.138" id="adv-card-item4"><path d="M76.644 89.191l-29-36.833a3.504 3.504 0 0 1-.394-3.705c.524-1.07 21.692-30.71 103.163-25.96 1.93.112 3.49 1.587 3.479 3.52-.012 1.933-1.633 3.576-3.521 3.48-66.182-3.375-90.819 15.384-95.566 20.448L82.143 84.86c1.193 1.52 1.021 3.84-.586 4.916-2.114 1.417-4.222.294-4.913-.585z"/><path d="M55.808 158.053c-.901-.988-22-24.402-15.556-42.434 3.309-9.254 12.943-15.104 28.638-17.391 16.408-2.392 26.408-7.224 28.92-13.979 2.831-7.621-4.479-16.171-4.555-16.257l-17.55-21.06a3.499 3.499 0 1 1 5.376-4.482l17.5 21c.357.406 10.059 11.652 5.805 23.194-3.483 9.457-15.088 15.686-34.488 18.51-12.93 1.883-20.686 6.197-23.054 12.822-4.185 11.707 8.785 29.49 14.136 35.355 1.303 1.428 1.149 3.588-.227 4.943-1.685 1.669-4.254.535-4.945-.221z"/><path d="M139.945 153.861l-47-46a3.5 3.5 0 0 1 4.894-5.002l47 46c1.382 1.353 1.652 3.527.312 4.918-2.333 2.416-4.523.75-5.206.084zM10.929 63.964c-8.348-7.761-5.078-21.523-4.935-22.105a3.5 3.5 0 0 1 6.798 1.665c-.035.146-2.413 10.399 2.919 15.33 4.191 3.877 12.7 3.88 24.599.013a3.502 3.502 0 0 1 4.411 2.247c.597 1.838-.419 3.783-2.247 4.41-20.906 7.17-28.113 1.629-31.545-1.56zm42.327-31.63c8.914 0 16.166-7.252 16.166-16.167S62.17 0 53.256 0c-8.915 0-16.168 7.252-16.168 16.167s7.252 16.167 16.168 16.167zm0-25.334c5.055 0 9.166 4.112 9.166 9.167s-4.111 9.167-9.166 9.167-9.168-4.112-9.168-9.167c0-5.056 4.113-9.167 9.168-9.167z"/></symbol><symbol viewBox="0 0 299.998 299.998" id="contacts-clock"><path d="M149.997 0C67.157 0 .001 67.158.001 149.995s67.156 150.003 149.995 150.003 150-67.163 150-150.003S232.836 0 149.997 0zm10.358 168.337c-.008.394-.067.788-.122 1.183-.039.296-.057.599-.124.89-.067.303-.182.602-.28.905-.117.366-.226.731-.379 1.076-.029.06-.039.124-.065.184-.226.482-.488.934-.775 1.362-.018.026-.042.052-.06.078-.327.48-.7.916-1.092 1.325-.109.112-.22.213-.335.319-.345.329-.708.63-1.094.905-.119.086-.233.176-.358.259-.495.324-1.014.609-1.554.843-.117.052-.239.083-.358.13a10.425 10.425 0 0 1-1.909.542c-.612.112-1.232.189-1.86.189-.127 0-.257-.039-.384-.044-.602-.023-1.198-.07-1.771-.192-.179-.039-.355-.117-.534-.166a10.53 10.53 0 0 1-1.554-.529c-.057-.029-.117-.034-.174-.06l-57.515-27.129c-5.182-2.443-7.402-8.626-4.959-13.808 2.443-5.179 8.626-7.402 13.808-4.959l42.716 20.144V62.249c0-5.729 4.645-10.374 10.374-10.374s10.374 4.645 10.374 10.374V168.15h.002c0 .062-.018.124-.018.187z"/></symbol><symbol viewBox="0 0 124.099 124.1" id="contacts-email"><path d="M18.25 106.7c5.6 5.399 12.3 9.8 20.1 12.8 7.8 3 16.5 4.6 25.9 4.6 10.5 0 20.2-1.6 28.9-4.899 7.9-2.9 1.1-17.601-4.7-15.2-6.399 2.7-14.2 4.1-23.101 4.1-7 0-13.399-1.1-19-3.199-5.6-2.101-10.5-5.101-14.5-9-4-3.9-7.2-8.7-9.4-14.2-2.3-5.601-3.4-12-3.4-19 0-6.6 1.1-12.9 3.3-18.5 2.2-5.6 5.2-10.6 9.2-14.6 3.9-4.1 8.7-7.4 14.2-9.7 5.5-2.3 11.7-3.5 18.5-3.5 6.301 0 12.1.9 17.301 2.5 5.1 1.6 9.5 4.1 13.199 7.4 3.7 3.3 6.6 7.3 8.7 12.1 2.101 4.8 3.101 10.4 3.101 16.8 0 3.7-.4 7.2-1.201 10.5-.799 3.1-1.799 5.899-3.199 8.1-1.301 2.101-2.801 3.8-4.6 5-2.101 1.4-5.201 2.2-7.601 1.4-3-1-2.399-5.2-2.2-7.7.301-3.4 1.2-6.6 1.9-9.9 1.1-5.4 2.3-10.7 3.4-16 .6-2.9 1.299-5.9 1.899-8.8.8-3.7-2-7.3-5.899-7.3h-4.4c-2.7 0-5.1 1.8-5.801 4.4-.299 1.2-.6 2.2-.6 2.2-2.199-6.8-10.3-8.7-16.7-8.6-8.4.1-16.1 4.4-21.7 10.5-.5.6-1.1 1.2-1.6 1.8-2.9 3.5-5.1 7.6-6.6 11.9-1.6 4.6-2.4 9.3-2.4 14.1 0 4.101.6 8 1.7 11.5 1.2 3.601 2.9 6.7 5.1 9.3 2.2 2.601 5 4.7 8.3 6.2 3.3 1.5 7 2.3 11 2.3 3 0 5.8-.5 8.3-1.399 2.4-.9 4.6-2 6.5-3.3 1.5-1 2.9-2.2 4-3.301.699 1.301 1.5 2.4 2.6 3.5 2.801 3 7.1 4.5 12.801 4.5 4.5 0 8.899-.899 13-2.699 4.1-1.801 7.799-4.601 10.899-8.2 3-3.601 5.5-8 7.3-13.2 1.801-5.2 2.7-11.2 2.7-17.8 0-9-1.7-17-5-23.7s-7.8-12.4-13.399-16.9c-5.5-4.5-11.9-7.8-19-10.1C79.05 1.1 71.75 0 64.25 0c-8.7 0-17 1.6-24.7 4.7-7.7 3.2-14.5 7.6-20.2 13.1-5.8 5.5-10.4 12.2-13.7 19.7-3.3 7.5-5 15.9-5 24.7 0 8.899 1.5 17.3 4.6 24.8 3 7.6 7.4 14.2 13 19.7zm54.099-42c-.699 2.7-1.699 5.3-3.1 7.7-1.4 2.3-3.1 4.199-5.3 5.699-2 1.4-4.4 2.101-7.4 2.101-1.9 0-3.4-.4-4.5-1.101-1.2-.8-2.2-1.8-2.9-3.1-.8-1.4-1.3-2.9-1.6-4.4-.3-1.6-.5-3.1-.5-4.399 0-2.8.4-5.6 1.2-8.5.8-2.8 1.9-5.4 3.4-7.6 1.5-2.2 3.2-4 5.3-5.4 1.9-1.3 4-1.9 6.5-1.9 2 0 3.601.3 4.8 1 1.2.7 2.2 1.6 2.9 2.7.8 1.2 1.3 2.6 1.699 4.1.4 1.7.601 3.5.601 5.2-.1 2.5-.399 5.1-1.1 7.9z"/></symbol><symbol viewBox="0 0 512.092 512.092" id="contacts-link"><path d="M312.453 199.601a116.167 116.167 0 0 0-20.053-16.128 119.472 119.472 0 0 0-64.427-18.859 118.952 118.952 0 0 0-84.48 34.987L34.949 308.23a119.466 119.466 0 0 0-34.91 84.318c-.042 65.98 53.41 119.501 119.39 119.543a118.7 118.7 0 0 0 84.395-34.816l89.6-89.6a8.534 8.534 0 0 0-6.059-14.592h-3.413a143.626 143.626 0 0 1-54.613-10.581 8.533 8.533 0 0 0-9.301 1.877l-64.427 64.512c-20.006 20.006-52.442 20.006-72.448 0-20.006-20.006-20.006-52.442 0-72.448l108.971-108.885c19.99-19.965 52.373-19.965 72.363 0 13.472 12.679 34.486 12.679 47.957 0a34.134 34.134 0 0 0 9.899-21.675 34.137 34.137 0 0 0-9.9-26.282z"/><path d="M477.061 34.993c-46.657-46.657-122.303-46.657-168.96 0l-89.515 89.429a8.533 8.533 0 0 0-1.792 9.387 8.532 8.532 0 0 0 8.021 5.205h3.157a143.357 143.357 0 0 1 54.528 10.667 8.533 8.533 0 0 0 9.301-1.877l64.256-64.171c20.006-20.006 52.442-20.006 72.448 0 20.006 20.006 20.006 52.442 0 72.448l-80.043 79.957-.683.768-27.989 27.819c-19.99 19.965-52.373 19.965-72.363 0-13.472-12.679-34.486-12.679-47.957 0a34.139 34.139 0 0 0-9.899 21.845 34.137 34.137 0 0 0 9.899 26.283 118.447 118.447 0 0 0 34.133 23.893c1.792.853 3.584 1.536 5.376 2.304 1.792.768 3.669 1.365 5.461 2.048a67.799 67.799 0 0 0 5.461 1.792l5.035 1.365c3.413.853 6.827 1.536 10.325 2.133 4.214.626 8.458 1.025 12.715 1.195h6.485l5.12-.597c1.877-.085 3.84-.512 6.059-.512h2.901l5.888-.853 2.731-.512 4.949-1.024h.939a119.456 119.456 0 0 0 55.381-31.403l108.629-108.629c46.66-46.657 46.66-122.303.003-168.96z"/></symbol><symbol viewBox="0 0 487.724 487.724" id="contacts-location"><path d="M236.925.124c-96.9 3.4-177.4 79-186.7 175.5-1.9 19.3-.8 38 2.6 55.9 0 0 .3 2.1 1.3 6.1 3 13.4 7.5 26.4 13.1 38.6 19.5 46.2 64.6 123.5 165.8 207.6 6.2 5.2 15.3 5.2 21.6 0 101.2-84 146.3-161.3 165.9-207.7 5.7-12.2 10.1-25.1 13.1-38.6.9-3.9 1.3-6.1 1.3-6.1 2.3-12 3.5-24.3 3.5-36.9 0-109.8-90.9-198.3-201.5-194.4zm6.9 291.2c-52.2 0-94.5-42.3-94.5-94.5s42.3-94.5 94.5-94.5 94.5 42.3 94.5 94.5-42.3 94.5-94.5 94.5z"/></symbol><symbol viewBox="0 0 348.077 348.077" id="contacts-tel"><path d="M340.273 275.083l-53.755-53.761c-10.707-10.664-28.438-10.34-39.518.744l-27.082 27.076a792.327 792.327 0 0 1-5.344-2.973c-17.102-9.476-40.509-22.464-65.14-47.113-24.704-24.701-37.704-48.144-47.209-65.257-1.003-1.813-1.964-3.561-2.913-5.221l18.176-18.149 8.936-8.947c11.097-11.1 11.403-28.826.721-39.521L73.39 8.194c-10.682-10.68-28.421-10.356-39.518.744l-15.15 15.237.414.411c-5.08 6.482-9.325 13.958-12.484 22.02C3.74 54.28 1.927 61.603 1.098 68.941-6 127.785 20.89 181.564 93.866 254.541c100.875 100.868 182.167 93.248 185.674 92.876 7.638-.913 14.958-2.738 22.397-5.627 7.992-3.122 15.463-7.361 21.941-12.43l.331.294 15.348-15.029c11.074-11.098 11.393-28.83.716-39.542z"/></symbol><symbol viewBox="0 0 139.4 44.7" id="dorohovdesign"><path d="M52.2 19.5V8.1H57c3.6 0 6.1 2.1 6.1 5.7 0 3.5-2.6 5.7-6.1 5.7h-4.8zm7.9-5.7c0-1.8-1.1-3.1-3.1-3.1h-1.9v6.2H57c2 0 3.1-1.4 3.1-3.1m4.1 0c0-3.4 2.6-5.9 6.1-5.9 3.5 0 6.1 2.4 6.1 5.9 0 3.5-2.6 5.9-6.1 5.9-3.5 0-6.1-2.4-6.1-5.9m9.2 0c0-1.9-1.2-3.3-3.1-3.3-1.9 0-3.1 1.4-3.1 3.3 0 1.8 1.2 3.3 3.1 3.3 1.9 0 3.1-1.4 3.1-3.3m11 5.7l-1.9-3.8H81v3.8h-2.9V8.1h5.7c2.5 0 3.9 1.7 3.9 3.8 0 2-1.2 3-2.3 3.4l2.3 4.2h-3.3zm.3-7.6c0-.8-.6-1.2-1.4-1.2H81v2.4h2.3c.8 0 1.4-.4 1.4-1.2m4.2 1.9c0-3.4 2.6-5.9 6.1-5.9 3.5 0 6.1 2.4 6.1 5.9 0 3.5-2.6 5.9-6.1 5.9-3.5 0-6.1-2.4-6.1-5.9m9.1 0c0-1.9-1.2-3.3-3.1-3.3-1.9 0-3.1 1.4-3.1 3.3 0 1.8 1.2 3.3 3.1 3.3 1.9 0 3.1-1.4 3.1-3.3m12.4 5.7v-4.6h-4.7v4.6h-3V8.1h3v4.3h4.7V8.1h2.9v11.4zm4.6-5.7c0-3.4 2.6-5.9 6.1-5.9 3.5 0 6.1 2.4 6.1 5.9 0 3.5-2.6 5.9-6.1 5.9-3.5 0-6.1-2.4-6.1-5.9m9.2 0c0-1.9-1.2-3.3-3.1-3.3-1.9 0-3.1 1.4-3.1 3.3 0 1.8 1.2 3.3 3.1 3.3 1.9 0 3.1-1.4 3.1-3.3m7.3 5.7l-4.3-11.4h3.3l2.8 8.2 2.8-8.2h3.3l-4.2 11.4zm-79.3 17V25.1H57c3.6 0 6.1 2.1 6.1 5.7 0 3.5-2.6 5.7-6.1 5.7h-4.8zm7.9-5.7c0-1.8-1.1-3.1-3.1-3.1h-1.9v6.2H57c2 0 3.1-1.4 3.1-3.1m4.7 5.7V25.1h8.3v2.6h-5.3v1.8H73V32h-5.2v1.9h5.3v2.6zm9.6-1.6l1.5-2.2c.8.8 2.1 1.5 3.6 1.5 1 0 1.6-.4 1.6-.9 0-1.5-6.4-.3-6.4-4.7 0-1.9 1.6-3.6 4.5-3.6 1.8 0 3.4.5 4.6 1.6l-1.6 2.1c-1-.8-2.2-1.2-3.3-1.2-.8 0-1.2.3-1.2.8 0 1.4 6.4.4 6.4 4.6 0 2.3-1.7 3.8-4.7 3.8-2.2 0-3.8-.7-5-1.8m11.5-9.8h2.9v11.3h-2.9zm4.7 5.7c0-3.6 2.8-5.9 6.1-5.9 2.5 0 4.1 1.3 4.8 2.8L99.1 29c-.4-.7-1.3-1.4-2.4-1.4-1.9 0-3.2 1.4-3.2 3.3s1.3 3.3 3.2 3.3c.8 0 1.7-.3 2.1-.7v-.9h-2.6V30h5.5v4.5c-1.2 1.3-2.9 2.2-5 2.2-3.4 0-6.1-2.3-6.1-5.9m20.9 5.7l-4.8-6.6v6.6h-2.9V25.1h3l4.6 6.3v-6.3h2.9v11.4zM17.7 0H0v44.7h17.8c15 0 24.6-8.8 24.6-22.4C42.4 8.7 32.7 0 17.7 0m-.4 35.7h-8V9.5h8c9.3 0 15.7 3.7 15.7 12.7.1 7.5-5.8 13.5-15.7 13.5"/><path d="M19.1 17H17v10.6h2c4 0 6.4-2.4 6.4-5.4 0-3.7-2.6-5.2-6.3-5.2"/></symbol><symbol viewBox="0 0 124.099 124.1" id="email"><path d="M18.25 106.7c5.6 5.399 12.3 9.8 20.1 12.8 7.8 3 16.5 4.6 25.9 4.6 10.5 0 20.2-1.6 28.9-4.899 7.9-2.9 1.1-17.601-4.7-15.2-6.399 2.7-14.2 4.1-23.101 4.1-7 0-13.399-1.1-19-3.199-5.6-2.101-10.5-5.101-14.5-9-4-3.9-7.2-8.7-9.4-14.2-2.3-5.601-3.4-12-3.4-19 0-6.6 1.1-12.9 3.3-18.5 2.2-5.6 5.2-10.6 9.2-14.6 3.9-4.1 8.7-7.4 14.2-9.7 5.5-2.3 11.7-3.5 18.5-3.5 6.301 0 12.1.9 17.301 2.5 5.1 1.6 9.5 4.1 13.199 7.4 3.7 3.3 6.6 7.3 8.7 12.1 2.101 4.8 3.101 10.4 3.101 16.8 0 3.7-.4 7.2-1.201 10.5-.799 3.1-1.799 5.899-3.199 8.1-1.301 2.101-2.801 3.8-4.6 5-2.101 1.4-5.201 2.2-7.601 1.4-3-1-2.399-5.2-2.2-7.7.301-3.4 1.2-6.6 1.9-9.9 1.1-5.4 2.3-10.7 3.4-16 .6-2.9 1.299-5.9 1.899-8.8.8-3.7-2-7.3-5.899-7.3h-4.4c-2.7 0-5.1 1.8-5.801 4.4-.299 1.2-.6 2.2-.6 2.2-2.199-6.8-10.3-8.7-16.7-8.6-8.4.1-16.1 4.4-21.7 10.5-.5.6-1.1 1.2-1.6 1.8-2.9 3.5-5.1 7.6-6.6 11.9-1.6 4.6-2.4 9.3-2.4 14.1 0 4.101.6 8 1.7 11.5 1.2 3.601 2.9 6.7 5.1 9.3 2.2 2.601 5 4.7 8.3 6.2 3.3 1.5 7 2.3 11 2.3 3 0 5.8-.5 8.3-1.399 2.4-.9 4.6-2 6.5-3.3 1.5-1 2.9-2.2 4-3.301.699 1.301 1.5 2.4 2.6 3.5 2.801 3 7.1 4.5 12.801 4.5 4.5 0 8.899-.899 13-2.699 4.1-1.801 7.799-4.601 10.899-8.2 3-3.601 5.5-8 7.3-13.2 1.801-5.2 2.7-11.2 2.7-17.8 0-9-1.7-17-5-23.7s-7.8-12.4-13.399-16.9c-5.5-4.5-11.9-7.8-19-10.1C79.05 1.1 71.75 0 64.25 0c-8.7 0-17 1.6-24.7 4.7-7.7 3.2-14.5 7.6-20.2 13.1-5.8 5.5-10.4 12.2-13.7 19.7-3.3 7.5-5 15.9-5 24.7 0 8.899 1.5 17.3 4.6 24.8 3 7.6 7.4 14.2 13 19.7zm54.099-42c-.699 2.7-1.699 5.3-3.1 7.7-1.4 2.3-3.1 4.199-5.3 5.699-2 1.4-4.4 2.101-7.4 2.101-1.9 0-3.4-.4-4.5-1.101-1.2-.8-2.2-1.8-2.9-3.1-.8-1.4-1.3-2.9-1.6-4.4-.3-1.6-.5-3.1-.5-4.399 0-2.8.4-5.6 1.2-8.5.8-2.8 1.9-5.4 3.4-7.6 1.5-2.2 3.2-4 5.3-5.4 1.9-1.3 4-1.9 6.5-1.9 2 0 3.601.3 4.8 1 1.2.7 2.2 1.6 2.9 2.7.8 1.2 1.3 2.6 1.699 4.1.4 1.7.601 3.5.601 5.2-.1 2.5-.399 5.1-1.1 7.9z"/></symbol><symbol viewBox="0 0 96.124 96.123" id="fb"><path d="M72.089.02L59.624 0C45.62 0 36.57 9.285 36.57 23.656v10.907H24.037a1.96 1.96 0 0 0-1.96 1.961v15.803a1.96 1.96 0 0 0 1.96 1.96H36.57v39.876a1.96 1.96 0 0 0 1.96 1.96h16.352a1.96 1.96 0 0 0 1.96-1.96V54.287h14.654a1.96 1.96 0 0 0 1.96-1.96l.006-15.803a1.963 1.963 0 0 0-1.961-1.961H56.842v-9.246c0-4.444 1.059-6.7 6.848-6.7l8.397-.003a1.96 1.96 0 0 0 1.959-1.96V1.98A1.96 1.96 0 0 0 72.089.02z"/></symbol><symbol viewBox="0 0 97.395 97.395" id="inst"><path d="M12.501 0h72.393c6.875 0 12.5 5.09 12.5 12.5v72.395c0 7.41-5.625 12.5-12.5 12.5H12.501C5.624 97.395 0 92.305 0 84.895V12.5C0 5.09 5.624 0 12.501 0zm58.447 10.821a4.395 4.395 0 0 0-4.383 4.385v10.495a4.396 4.396 0 0 0 4.383 4.385h11.008a4.398 4.398 0 0 0 4.385-4.385V15.206a4.397 4.397 0 0 0-4.385-4.385H70.948zm15.439 30.367h-8.572a28.486 28.486 0 0 1 1.25 8.355c0 16.2-13.556 29.332-30.275 29.332-16.718 0-30.272-13.132-30.272-29.332 0-2.904.438-5.708 1.25-8.355h-8.945v41.141a3.884 3.884 0 0 0 3.872 3.872h67.822a3.883 3.883 0 0 0 3.872-3.872V41.188h-.002zM48.789 29.533c-10.802 0-19.56 8.485-19.56 18.953s8.758 18.953 19.56 18.953c10.803 0 19.562-8.485 19.562-18.953s-8.758-18.953-19.562-18.953z"/></symbol><symbol viewBox="0 0 97.713 97.713" id="location"><path d="M48.855 0C29.021 0 12.883 16.138 12.883 35.974c0 5.174 1.059 10.114 3.146 14.684 8.994 19.681 26.238 40.46 31.31 46.359a2.003 2.003 0 0 0 3.034 0c5.07-5.898 22.314-26.676 31.311-46.359 2.088-4.57 3.146-9.51 3.146-14.684C84.828 16.138 68.69 0 48.855 0zm0 54.659c-10.303 0-18.686-8.383-18.686-18.686 0-10.304 8.383-18.687 18.686-18.687s18.686 8.383 18.686 18.687c.001 10.303-8.382 18.686-18.686 18.686z"/></symbol><symbol viewBox="0 0 512 512" id="login"><path d="M173.781 280.469c-4.16 4.16-4.16 10.923 0 15.083a10.716 10.716 0 0 0 7.552 3.115c2.731 0 5.461-1.045 7.531-3.115l64-64a10.643 10.643 0 0 0 2.304-3.477c.299-.747.341-1.515.469-2.304.107-.597.363-1.152.363-1.771 0-.811-.299-1.536-.469-2.283-.128-.576-.128-1.195-.363-1.749a11.19 11.19 0 0 0-2.368-3.563l-63.936-63.936c-4.16-4.16-10.923-4.16-15.083 0s-4.16 10.923 0 15.083l45.76 45.781H32c-5.888 0-10.667 4.779-10.667 10.667S26.112 234.667 32 234.667h187.584l-45.803 45.802z"/><path d="M444.608 0c-1.643 0-3.243.32-4.843.491-.81-.192-1.578-.491-2.432-.491h-256C151.936 0 128 23.936 128 53.333V160c0 5.888 4.779 10.667 10.667 10.667s10.667-4.779 10.667-10.667V53.333c0-17.643 14.357-32 32-32h204.032l-80.107 34.325a46.033 46.033 0 0 0-27.925 42.347v328.661h-96c-15.339 0-28.373-10.667-31.552-15.083l-.448-123.627c-.021-5.867-4.8-10.624-10.667-10.624h-.043c-5.888.021-10.645 4.821-10.624 10.709l.491 124.309c-.427 4.672 1.771 9.557 6.677 14.933 8.725 9.557 26.048 20.715 46.165 20.715h96v17.941c0 25.387 20.672 46.059 46.059 46.059a45.811 45.811 0 0 0 18.133-3.712l121.216-51.947a46.033 46.033 0 0 0 27.925-42.347V46.059C490.667 20.672 469.995 0 444.608 0zm24.725 413.995a24.677 24.677 0 0 1-14.997 22.72L333.12 488.661c-3.072 1.344-6.357 2.005-9.728 2.005-13.632 0-24.725-11.093-24.725-24.725V98.005a24.677 24.677 0 0 1 14.997-22.72L434.88 23.339c3.072-1.344 6.357-2.005 9.728-2.005 13.632 0 24.725 11.093 24.725 24.725v367.936z"/><path d="M330.667 234.667c-5.888 0-10.667 4.779-10.667 10.667V288c0 5.888 4.779 10.667 10.667 10.667s10.667-4.779 10.667-10.667v-42.667c-.001-5.888-4.779-10.666-10.667-10.666z"/></symbol><symbol viewBox="0 0 41.756 41.756" id="modal-close"><path d="M27.948 20.878L40.291 8.536a5 5 0 1 0-7.07-7.071L20.878 13.809 8.535 1.465a5 5 0 0 0-7.07 7.071l12.342 12.342L1.465 33.22a5 5 0 1 0 7.07 7.071l12.343-12.342 12.343 12.343c.976.977 2.256 1.464 3.535 1.464s2.56-.487 3.535-1.464a5 5 0 0 0 0-7.071L27.948 20.878z"/></symbol><symbol viewBox="0 0 7 4" id="navbar-dropdown"><path d="M3.5 4a.488.488 0 0 1-.347-.144L.143.84a.492.492 0 0 1 0-.695.49.49 0 0 1 .694 0L3.5 2.814 6.163.144a.49.49 0 0 1 .693 0 .492.492 0 0 1 0 .695l-3.01 3.017A.488.488 0 0 1 3.5 4z"/></symbol><symbol viewBox="0 0 309.156 309.156" id="owl-bottom"><path fill="#010002" d="M288.461 64.929L154.589 202.766 20.723 64.94 0 85.07l154.589 159.158L309.156 85.07z"/></symbol><symbol viewBox="0 0 306 306" id="owl-next"><path d="M70.3 35.7L187.6 153 70.3 270.3 106 306l153-153L106 0 70.3 35.7z"/></symbol><symbol viewBox="51 -52.2 477.2 477.2" id="owl-next-400"><path d="M167.6 401.9c-5.3 5.3-5.3 13.8 0 19.1 2.6 2.7 6.1 4 9.5 4s6.9-1.4 9.5-4l225.1-225c5.3-5.3 5.3-13.8 0-19.1L186.6-48.2c-5.3-5.3-13.8-5.3-19.1 0s-5.3 13.8 0 19.1L383 186.4 167.6 401.9z"/></symbol><symbol viewBox="0 0 306 306" id="owl-prev"><path d="M235.7 270.3L118.4 153 235.7 35.7 200 0 47 153l153 153 35.7-35.7z"/></symbol><symbol viewBox="0 0 477.175 477.175" id="owl-prev-400"><path d="M145.188 238.575l215.5-215.5c5.3-5.3 5.3-13.8 0-19.1s-13.8-5.3-19.1 0l-225.1 225.1c-5.3 5.3-5.3 13.8 0 19.1l225.1 225c2.6 2.6 6.1 4 9.5 4s6.9-1.3 9.5-4c5.3-5.3 5.3-13.8 0-19.1l-215.4-215.5z"/></symbol><symbol viewBox="0 0 42 42" id="plus"><path d="M42 19H23V0h-4v19H0v4h19v19h4V23h19z"/></symbol><symbol viewBox="0 0 510.127 510.127" id="ruble"><path d="M34.786 428.963h81.158v69.572c0 3.385 1.083 6.156 3.262 8.322 2.173 2.18 4.951 3.27 8.335 3.27h60.502c3.14 0 5.857-1.09 8.152-3.27 2.295-2.166 3.439-4.938 3.439-8.322v-69.572h182.964c3.377 0 6.156-1.076 8.334-3.256 2.18-2.178 3.262-4.951 3.262-8.336v-46.377c0-3.365-1.082-6.156-3.262-8.322-2.172-2.18-4.957-3.27-8.334-3.27h-182.97v-42.754h123.184c48.305 0 87.73-14.719 118.293-44.199 30.551-29.449 45.834-67.49 45.834-114.125 0-46.604-15.283-84.646-45.834-114.125C410.548 14.749 371.116 0 322.812 0H127.535c-3.385 0-6.157 1.089-8.335 3.256-2.173 2.179-3.262 4.969-3.262 8.335v227.896H34.786c-3.384 0-6.157 1.145-8.335 3.439-2.172 2.295-3.262 5.012-3.262 8.151v53.978c0 3.385 1.083 6.158 3.262 8.336 2.179 2.18 4.945 3.256 8.335 3.256h81.158v42.754H34.786c-3.384 0-6.157 1.09-8.335 3.27-2.172 2.166-3.262 4.951-3.262 8.322v46.377c0 3.385 1.083 6.158 3.262 8.336 2.178 2.181 4.95 3.257 8.335 3.257zM199.628 77.179h115.938c25.6 0 46.248 7.485 61.953 22.46 15.697 14.976 23.549 34.547 23.549 58.691 0 24.156-7.852 43.733-23.549 58.691-15.705 14.988-36.354 22.473-61.953 22.473H199.628V77.179z"/></symbol><symbol viewBox="0 0 68.1 68.1" id="scrollto"><path d="M34.5 67.9h-1c-10.1 0-18.3-8.2-18.3-18.3v-31C15.2 8.5 23.4.3 33.5.3h1c10.1 0 18.3 8.2 18.3 18.3v31c.1 10.1-8.2 18.3-18.3 18.3zm-.9-65.6c-9 0-16.3 7.3-16.3 16.3v31c0 9 7.3 16.3 16.3 16.3h1c9 0 16.3-7.3 16.3-16.3v-31c0-9-7.3-16.3-16.3-16.3h-1z"/><path d="M34.1 25.4c-1.2 0-2.3-1-2.3-2.2v-6.5c0-1.2 1-2.2 2.2-2.2 1.2 0 2.2 1 2.2 2.2v6.5c.1 1.2-.9 2.2-2.1 2.2z"/></symbol><symbol viewBox="0 0 56.966 56.966" id="search"><path d="M55.146 51.887L41.588 37.786A22.926 22.926 0 0 0 46.984 23c0-12.682-10.318-23-23-23s-23 10.318-23 23 10.318 23 23 23c4.761 0 9.298-1.436 13.177-4.162l13.661 14.208c.571.593 1.339.92 2.162.92.779 0 1.518-.297 2.079-.837a3.004 3.004 0 0 0 .083-4.242zM23.984 6c9.374 0 17 7.626 17 17s-7.626 17-17 17-17-7.626-17-17 7.626-17 17-17z"/></symbol><symbol viewBox="-169 262.9 277 286" id="swape"><path d="M44.5 310.8l-23-23c-2.3-2.3-6.1-2.3-8.5 0-2.3 2.3-2.3 6.1 0 8.5l12.2 12.2h-57.5c-3.3 0-6 2.7-6 6s2.7 6 6 6h58.6l-12.7 12.7c-2.3 2.3-2.3 6.1 0 8.5 1.2 1.2 2.7 1.8 4.2 1.8s3.1-.6 4.2-1.8l22.4-22.4c2.4-2.4 2.4-6.2.1-8.5zm-20.9 79c-6.4-4.2-13-5.9-18.1-6.4-6.6-8.9-16.2-13.7-27.2-13.7-2.4 0-4.9.2-7.4.7-6.5-7.5-15.5-11.5-25.6-11.5h-.6v-36.8c0-8.5-3.3-16-9.2-21.2-5.2-4.6-12-7.1-19.2-7.1-7.8 0-15.2 3-20.4 8.2-5.2 5.2-8 12.2-8 20.2l.1 53.2v33.7c-7.6 4.1-12.8 10.5-15.3 18.8-3.7 12.7-.8 29.1 9.1 50.2 6.5 13.8 14.3 25.9 18.1 31.4l1.7 22.1c.7 9.9 9.1 17.6 18.9 17.6l78.6-.1c9.5 0 17.6-7.1 18.8-16.5L21 509c18.6-29.1 25.4-59.3 20.2-89.7-2.8-16.5-11.1-25.2-17.6-29.5zM10.3 503.4c-.6.9-.9 1.9-1.1 2.9L6 530.7c-.5 3.5-3.4 5.9-6.9 5.9l-78.6-.1c-3.7 0-6.7-2.6-7-6.3l-1.8-23.3c-.1-1.2-.5-2.4-1.2-3.4-7.2-10.5-47.4-71.4-14.8-85 2.6-1.1 4.3-3.6 4.3-6.4 0-16.6-.1-71.7-.1-90.1 0-10.9 8.2-16.4 16.4-16.4s16.4 5.5 16.4 16.4l.1 42.3c0 3.9 3.2 7 7 7 .4 0 .7 0 1.1-.1 1.4-.2 2.9-.4 4.5-.4 5.9 0 12.8 2 18.1 9.3 1.3 1.8 3.4 2.8 5.6 2.8.6 0 1.2-.1 1.8-.2 2.1-.5 4.7-1 7.5-1 6.2 0 13.4 2.2 18.8 10.7 1 1.6 2.8 2.6 4.8 2.7 7.1.3 23.6 3.4 27.4 26.2 3.6 21.2 1.9 49.6-19.1 82.1z"/><path d="M-125.8 350.4c-1.8 0-3.6-.9-4.6-2.5-5.6-8.8-8.6-19.1-8.6-29.6 0-30.4 24.7-55 55-55 30.4 0 55 24.7 55 55 0 10.4-2.9 20.6-8.5 29.4-1.6 2.6-5 3.3-7.6 1.7-2.6-1.6-3.3-5-1.7-7.6 4.4-7 6.8-15.1 6.8-23.5 0-24.3-19.8-44-44-44-24.3 0-44 19.8-44 44 0 8.4 2.4 16.6 6.9 23.7 1.6 2.6.9 6-1.7 7.6-1 .6-2 .8-3 .8z"/></symbol><symbol viewBox="0 0 29.731 29.731" id="tel"><path d="M23.895 29.731c-1.237 0-2.731-.31-4.374-.93-3.602-1.358-7.521-4.042-11.035-7.556C4.971 17.73 2.287 13.81.928 10.208-.307 6.933-.31 4.245.921 3.015c.177-.177.357-.367.543-.563C2.587 1.271 3.856-.058 5.538.002 6.697.05 7.82.77 8.97 2.201c3.398 4.226 1.866 5.732.093 7.478l-.313.31c-.29.29-.838 1.633 4.26 6.731 1.664 1.664 3.083 2.882 4.217 3.619.714.464 1.991 1.166 2.515.642l.315-.318c1.744-1.769 3.25-3.296 7.473.099 1.431 1.15 2.15 2.272 2.198 3.433.069 1.681-1.27 2.953-2.452 4.075-.195.186-.385.366-.562.542-.611.612-1.588.919-2.819.919zM5.418 1C4.223 1 3.144 2.136 2.189 3.141c-.192.202-.378.398-.561.581-.917.916-.824 3.323.236 6.134 1.31 3.472 3.913 7.266 7.33 10.683 3.416 3.415 7.208 6.018 10.681 7.327 2.811 1.062 5.218 1.152 6.133.237.183-.183.379-.369.581-.56 1.027-.976 2.192-2.082 2.141-3.309-.035-.843-.649-1.75-1.825-2.695-3.519-2.83-4.503-1.831-6.135-.176l-.32.323c-.78.781-2.047.608-3.767-.51-1.193-.776-2.667-2.038-4.379-3.751-4.231-4.23-5.584-6.819-4.26-8.146l.319-.315c1.659-1.632 2.66-2.617-.171-6.138-.947-1.175-1.853-1.789-2.696-1.825L5.418 1z"/></symbol><symbol viewBox="0 0 304.36 304.36" id="vk"><path d="M261.945 175.576c10.096 9.857 20.752 19.131 29.807 29.982 4 4.822 7.787 9.798 10.684 15.394 4.105 7.955.387 16.709-6.746 17.184l-44.34-.02c-11.436.949-20.559-3.655-28.23-11.474-6.139-6.253-11.824-12.908-17.727-19.372-2.42-2.642-4.953-5.128-7.979-7.093-6.053-3.929-11.307-2.726-14.766 3.587-3.523 6.421-4.322 13.531-4.668 20.687-.475 10.441-3.631 13.186-14.119 13.664-22.414 1.057-43.686-2.334-63.447-13.641-17.422-9.968-30.932-24.04-42.691-39.971-22.895-31.021-40.428-65.108-56.186-100.15C-2.01 76.458.584 72.22 9.295 72.07c14.465-.281 28.928-.261 43.41-.02 5.879.086 9.771 3.458 12.041 9.012 7.826 19.243 17.402 37.551 29.422 54.521 3.201 4.518 6.465 9.036 11.113 12.216 5.142 3.521 9.057 2.354 11.476-3.374 1.535-3.632 2.207-7.544 2.553-11.434 1.146-13.383 1.297-26.743-.713-40.079-1.234-8.323-5.922-13.711-14.227-15.286-4.238-.803-3.607-2.38-1.555-4.799 3.564-4.172 6.916-6.769 13.598-6.769h50.111c7.889 1.557 9.641 5.101 10.721 13.039l.043 55.663c-.086 3.073 1.535 12.192 7.07 14.226 4.43 1.448 7.35-2.096 10.008-4.905 11.998-12.734 20.561-27.783 28.211-43.366 3.395-6.852 6.314-13.968 9.143-21.078 2.096-5.276 5.385-7.872 11.328-7.757l48.229.043c1.43 0 2.877.021 4.262.258 8.127 1.385 10.354 4.881 7.844 12.817-3.955 12.451-11.65 22.827-19.174 33.251-8.043 11.129-16.645 21.877-24.621 33.072-7.328 10.223-6.746 15.376 2.357 24.255zm0 0" fill-rule="evenodd" clip-rule="evenodd"/></symbol></svg>